<svg xmlns="http://www.w3.org/2000/svg" width="32" height="32" viewBox="0 0 16 16"><g fill="#33ff41"><path d="m10.875 7l2.008 5h-.711l-2.008-5zm-5.125.594c-.276 0-.526.041-.75.125a1.542 1.542 0 0 0-.578.375c-.162.166-.287.37-.375.61a2.364 2.364 0 0 0-.133.827c0 .287.04.547.117.781c.078.235.196.433.352.594c.156.162.346.29.57.383c.224.094.48.138.766.133a2.63 2.63 0 0 0 .992-.195l.125.484a1.998 1.998 0 0 1-.492.148a4.381 4.381 0 0 1-.75.07a2.61 2.61 0 0 1-.914-.156a2.207 2.207 0 0 1-.742-.453a1.878 1.878 0 0 1-.485-.742a3.204 3.204 0 0 1-.18-1.023c0-.365.06-.698.18-1c.12-.302.287-.563.5-.782c.214-.218.471-.388.774-.507a2.69 2.69 0 0 1 1-.18c.296 0 .536.023.718.07c.183.047.315.094.399.14l-.149.493a1.85 1.85 0 0 0-.406-.14a2.386 2.386 0 0 0-.539-.055M8 8h1v1H8zm0 2h1v1H8z"/><path d="M15.5 1H.5l-.5.5v13l.5.5h15l.5-.5v-13zM15 14H1V5h14zm0-10H1V2h14z"/></g></svg>