<svg xmlns="http://www.w3.org/2000/svg" width="32" height="32" viewBox="0 0 24 24"><path fill="#33ff41" d="M5 8h14V6H5zm0 0V6zm0 14q-.825 0-1.412-.587T3 20V6q0-.825.588-1.412T5 4h1V3q0-.425.288-.712T7 2q.425 0 .713.288T8 3v1h8V3q0-.425.288-.712T17 2q.425 0 .713.288T18 3v1h1q.825 0 1.413.588T21 6v5.675q-.475-.225-.975-.375T19 11.075V10H5v10h6.3q.175.55.413 1.05t.562.95zm13 1q-2.075 0-3.537-1.463T13 18q0-2.075 1.463-3.537T18 13q2.075 0 3.538 1.463T23 18q0 2.075-1.463 3.538T18 23m.5-5.2v-2.3q0-.2-.15-.35T18 15q-.2 0-.35.15t-.15.35v2.275q0 .2.075.388t.225.337l1.525 1.525q.15.15.35.15t.35-.15q.15-.15.15-.35t-.15-.35z"/></svg>