<svg xmlns="http://www.w3.org/2000/svg" width="32" height="32" viewBox="0 0 14 14"><path fill="none" stroke="#33ff41" stroke-linecap="round" stroke-linejoin="round" d="M4.194 8.094a1.86 1.86 0 1 0 0-3.719a1.86 1.86 0 0 0 0 3.719M.523 13.479A3.68 3.68 0 0 1 1 11.704a3.711 3.711 0 0 1 3.195-1.868c1.31.003 2.55.727 3.195 1.868a3.68 3.68 0 0 1 .477 1.774m2.02-12.095v-.82m2.799 1.827l.671-.471m-6.271.471l-.672-.471m5.506 3.139a2.055 2.055 0 0 0-2.077-2.042a2.055 2.055 0 0 0-1.99 2.127a2.067 2.067 0 0 0 1.126 1.73v1a.227.227 0 0 0 .226.22h1.361a.227.227 0 0 0 .227-.22V6.855a2.07 2.07 0 0 0 1.128-1.797Z"/></svg>